# xmcd
#
# Track frame offsets: 
#        150
#        16633
#        34078
#        49799
#        70205
#        98009
#        122834
#        150000
#        176959
#        208337
#        225467
#        256985
#        281155
#        306214
#        323235
#
# Disc length: 4555 seconds
#
# Revision: 3
# Processed by: cddbd v1.5.2PL0 Copyright (c) Steve Scherf et al.
# Submitted via: ExactAudioCopy v0.99pb5
#
DISCID=c811c90f
DTITLE=DJ Shog - My Sound
DYEAR=2006
DGENRE=Trance
TTITLE0=Jealousy (Edit)
TTITLE1=Another World (Radio Edit)
TTITLE2=This Is My Sound (CJ Stone Radio Edit)
TTITLE3=Running Water (Album Cut)
TTITLE4=Be The One (feat. Ida)
TTITLE5=Go (Album Cut)
TTITLE6=Surrounded By Your Love (feat. Aven)
TTITLE7=Tribute (Album Version)
TTITLE8=Rush Hour (Original Mix)
TTITLE9=Live 4 Music (Original Edit)
TTITLE10=Don´t Push Me Down (feat. Anita Kelsey)
TTITLE11=Don´t Stop (Album Cut)
TTITLE12=Nightlights (Original Mix)
TTITLE13=The 2nd Dimension (UK Radio Edit)
TTITLE14=This Is My Sound (Original Radio Edit)
EXTD=YEAR: 2006
EXTT0=
EXTT1=
EXTT2=
EXTT3=
EXTT4=
EXTT5=
EXTT6=
EXTT7=
EXTT8=
EXTT9=
EXTT10=
EXTT11=
EXTT12=
EXTT13=
EXTT14=
PLAYORDER=
